<?xml version="1.0" standalone="no"?>
<!DOCTYPE svg PUBLIC "-//W3C//DTD SVG 20010904//EN" "http://www.w3.org/TR/2001/REC-SVG-20010904/DTD/svg10.dtd">
<!-- Created using Krita: https://krita.org -->
<svg xmlns="http://www.w3.org/2000/svg" 
    xmlns:xlink="http://www.w3.org/1999/xlink"
    xmlns:krita="http://krita.org/namespaces/svg/krita"
    xmlns:sodipodi="http://sodipodi.sourceforge.net/DTD/sodipodi-0.dtd"
    width="420.96pt"
    height="145.92pt"
    viewBox="0 0 420.96 145.92">
<defs>
  <linearGradient id="gradient0" gradientUnits="objectBoundingBox" x1="4.30211422042248e-15" y1="-5.93969318174459e-15" x2="1" y2="1" spreadMethod="pad">
   <stop stop-color="#00ffa1" offset="0.3125" stop-opacity="1"/>
   <stop stop-color="#00a6ff" offset="0.770833313465118" stop-opacity="1"/>
  </linearGradient>
 </defs>
<g id="group0" transform="translate(13.1062509491213, 108.552525513923)" fill="none">
  <path id="shape0" fill="url(#gradient0)" stroke="none" stroke-width="1" stroke-linecap="square" stroke-linejoin="bevel" d="M1.62375 -63.75L26.8762 -63.75L69.8738 0L44.625 0L1.62375 -63.75M40.0012 -53.7488L45.2512 -63.75L69 -63.75L51.8738 -36.1238L40.0012 -53.7488M18.75 -28.875L30.6262 -11.25L24.6262 0L0.87375 0L18.75 -28.875" sodipodi:nodetypes="ccccccccccccccc"/>
 </g><g id="group1" transform="translate(85.2356261035382, 126.016874712778)" fill="none">
  <path id="shape1" fill="#000000" stroke-opacity="0" stroke="#000000" stroke-width="0" stroke-linecap="square" stroke-linejoin="bevel" d="M89.7 -3.3C89.7 -1.2 85 -0.15 75.6 -0.15C66.2 -0.15 61.1 -0.9 60.3 -2.4L35.25 -49.2L35.25 -2.55C35.25 -0.75 30.625 0.15 21.375 0.15C12.125 0.15 7.5 -0.75 7.5 -2.55L7.5 -102.9C7.5 -104.4 11.45 -105.15 19.35 -105.15C22.45 -105.15 26.075 -104.875 30.225 -104.325C34.375 -103.775 36.9 -102.75 37.8 -101.25L61.8 -55.05L61.8 -102.15C61.8 -104.05 66.45 -105 75.75 -105C85.05 -105 89.7 -104.05 89.7 -102.15L89.7 -3.3M153.75 -102C153.75 -104 159.175 -105 170.025 -105C180.875 -105 186.3 -104 186.3 -102L186.3 -33.15C186.3 -22.95 182.65 -14.625 175.35 -8.175C168.05 -1.725 157.975 1.5 145.125 1.5C132.275 1.5 121.825 -1.825 113.775 -8.475C105.725 -15.125 101.7 -24.1 101.7 -35.4L101.7 -101.85C101.7 -103.85 107.125 -104.85 117.975 -104.85C128.825 -104.85 134.25 -103.85 134.25 -101.85L134.25 -34.2C134.25 -32.2 135.3 -30.6 137.4 -29.4C139.6 -28.2 141.9 -27.6 144.3 -27.6C146.7 -27.6 148.875 -28.15 150.825 -29.25C152.775 -30.35 153.75 -32 153.75 -34.2L153.75 -102M197.4 -8.85L197.4 -102.15C197.4 -104.25 202.475 -105.3 212.625 -105.3C222.775 -105.3 227.85 -104.25 227.85 -102.15L227.85 -28.65L250.95 -28.65C252.75 -28.65 254 -26.3 254.7 -21.6C255 -19.3 255.15 -16.95 255.15 -14.55C255.15 -12.15 255 -9.7 254.7 -7.2C253.9 -2.4 252.6 0 250.8 0L204.6 0C202.4 0 200.65 -0.9 199.35 -2.7C198.05 -4.5 197.4 -6.55 197.4 -8.85M262.65 -8.85L262.65 -102.15C262.65 -104.25 267.725 -105.3 277.875 -105.3C288.025 -105.3 293.1 -104.25 293.1 -102.15L293.1 -28.65L316.2 -28.65C318 -28.65 319.25 -26.3 319.95 -21.6C320.25 -19.3 320.4 -16.95 320.4 -14.55C320.4 -12.15 320.25 -9.7 319.95 -7.2C319.15 -2.4 317.85 0 316.05 0L269.85 0C267.65 0 265.9 -0.9 264.6 -2.7C263.3 -4.5 262.65 -6.55 262.65 -8.85" sodipodi:nodetypes="ccccccccccccccccccccccccccccccccccccccccccccccccccccccccccc"/>
 </g>
</svg>
